<?xml version="1.0" encoding="utf-8"?>
<!-- Generator: Adobe Illustrator 23.0.5, SVG Export Plug-In . SVG Version: 6.00 Build 0)  -->
<svg version="1.1" id="Capa_1" xmlns="http://www.w3.org/2000/svg" xmlns:xlink="http://www.w3.org/1999/xlink" x="0px" y="0px"
	 viewBox="0 0 425.2 67.5" style="enable-background:new 0 0 425.2 67.5;" xml:space="preserve">
<style type="text/css">
	.st0{fill:#012340;}
</style>
<g>
	<path class="st0" d="M49.8,2.8l4-0.8c0.4-0.1,0.7-0.3,0.9-0.6C54.8,1,54.9,0.6,54.9,0h-9.9L29.6,41.2L14.1,0H5.5
		C5,0.1,4.6,0.3,4.4,0.6C4.3,0.8,4.2,1.3,4.2,1.9l5.1,1l-4,42.3L1.2,46c-0.4,0.1-0.7,0.2-0.9,0.6C0.1,46.8,0,47.3,0,47.9h11.7
		c0.5-0.1,0.9-0.4,1.1-0.6C12.9,47,13,46.6,13,46L7.7,45l3.7-40.9L28,48c0.1,0,0.2,0.1,0.3,0.1c0.1,0,0.2,0,0.3,0
		c0.2,0,0.4-0.1,0.6-0.3c0.2-0.2,0.4-0.5,0.6-1L46,3.8l3.3,41.1l-4.6,1c-0.4,0.1-0.7,0.2-0.9,0.6c-0.2,0.3-0.3,0.8-0.3,1.4h13.9
		c0.5-0.1,0.9-0.4,1-0.6c0.1-0.3,0.2-0.7,0.2-1.3l-5.5-1L49.8,2.8z"/>
	<path class="st0" d="M93.7,45.7c-0.7,0.3-1.4,0.4-2,0.4c-0.6,0-1.1-0.2-1.4-0.7c-0.3-0.4-0.5-1.1-0.5-1.9V24.9c0-4.1-0.7-7-2.2-8.8
		c-1.4-1.8-3.8-2.7-7.1-2.7c-2.3,0-4.4,0.3-6.2,1c-1.8,0.7-3.3,1.6-4.3,2.8c-1,1.2-1.6,2.6-1.6,4.1c0,0.7,0.2,1.3,0.5,1.7
		c0.3,0.4,0.8,0.6,1.4,0.6c0.3,0,0.6,0,0.9-0.1c0.3-0.1,0.6-0.2,0.8-0.4c-0.1-2.5,0.6-4.5,2.1-6c1.4-1.4,3.3-2.2,5.8-2.2
		c2.1,0,3.6,0.6,4.6,1.9c1,1.3,1.5,3.3,1.5,6v5.6l-8.7,2c-3.6,0.8-6.3,2.2-8.1,3.9c-1.8,1.8-2.7,4.1-2.7,6.9c0,2.3,0.8,4.1,2.3,5.5
		c1.5,1.3,3.5,2,5.8,2c2.3,0,4.5-0.5,6.4-1.5c1.9-1,3.6-2.4,4.9-4.1h0.2c0,1.8,0.4,3.2,1.1,4.1c0.7,1,1.8,1.5,3.1,1.5
		c0.9,0,1.9-0.3,3-0.7c1-0.5,1.9-1.2,2.6-2l-0.4-1.4C95,45.1,94.4,45.4,93.7,45.7z M81.9,45.1c-1.7,0.9-3.6,1.4-5.6,1.4
		c-1.8,0-3.3-0.6-4.4-1.7c-1.1-1.1-1.6-2.7-1.6-4.7c0-2.1,0.6-3.8,1.9-5.2c1.2-1.3,3.1-2.3,5.6-2.9l8.2-2v11.3
		C84.9,43,83.6,44.2,81.9,45.1z"/>
	<path class="st0" d="M121.5,13.4c-1.8,0-3.7,0.7-5.8,2.2c-2.1,1.5-3.8,3.4-5.3,5.7h-0.1V18c0-1.3-0.3-2.3-0.8-2.9
		c-0.5-0.6-1.2-0.9-2.1-0.9c-0.4,0-1,0.1-1.8,0.1c-0.7,0.1-1.9,0.3-3.5,0.5c0,0.6,0.1,1,0.3,1.3c0.2,0.3,0.5,0.5,0.8,0.6l3.5,0.5V45
		l-3.4,1c-0.8,0.3-1.2,0.9-1.2,1.9h12.3c0.5-0.1,0.9-0.4,1.1-0.6c0.2-0.3,0.3-0.7,0.3-1.3l-5.2-1.1V23.1c1.3-1.7,2.6-3.2,4.1-4.5
		c1.7-1.4,3.3-2.2,4.7-2.2c0.9,0,1.7,0.2,2.5,0.7c0.7,0.4,1.5,1.4,2.2,2.8c0.6,0,1.2-0.3,1.6-0.8c0.4-0.5,0.6-1.2,0.6-1.9
		c0-0.9-0.3-1.8-1-2.6C124.4,13.8,123.2,13.4,121.5,13.4z"/>
	<path class="st0" d="M150.5,45.1c-2,0.9-4,1.4-6,1.4c-3.8,0-6.7-1.3-8.7-4c-2-2.7-3-6.6-3-11.6c0-5,1-8.9,2.9-11.6
		c1.9-2.7,4.7-4.1,8.3-4.1c2.6,0,4.6,0.7,5.9,2.1c1.3,1.4,2,3.4,2,5.9c0.3,0.1,0.6,0.3,0.9,0.3c0.3,0.1,0.6,0.1,0.9,0.1
		c0.7,0,1.3-0.2,1.7-0.7c0.4-0.5,0.6-1.1,0.6-2c0-1.4-0.5-2.7-1.5-3.9c-1-1.1-2.3-2.1-4-2.7c-1.7-0.7-3.6-1-5.6-1
		c-3.1,0-5.9,0.8-8.4,2.5c-2.5,1.6-4.4,3.9-5.8,6.8c-1.4,2.9-2.1,6.2-2.1,10c0,3.3,0.6,6.2,1.8,8.6c1.2,2.4,2.8,4.3,5,5.6
		c2.2,1.3,4.7,2,7.7,2c1.7,0,3.4-0.3,5-0.8c1.6-0.5,3.2-1.3,4.6-2.2c1.4-0.9,2.6-2.1,3.6-3.4l-0.8-1.2
		C154.1,42.9,152.4,44.2,150.5,45.1z"/>
	<path class="st0" d="M187,15.4c-2.1-1.3-4.6-2-7.5-2c-3.3,0-6.2,0.9-8.9,2.6c-2.6,1.7-4.7,4-6.2,7c-1.5,2.9-2.3,6.3-2.3,10
		c0,4.8,1.3,8.6,3.8,11.5c2.5,2.9,6,4.3,10.3,4.3c3.4,0,6.4-0.8,9-2.5c2.6-1.7,4.7-4,6.1-6.9c1.5-2.9,2.2-6.3,2.2-10.2
		c0-3.2-0.6-6-1.8-8.3C190.7,18.5,189.1,16.7,187,15.4z M186.4,42.6c-2.1,2.9-5,4.3-8.9,4.3c-3.6,0-6.4-1.3-8.4-4
		c-1.9-2.6-2.9-6.5-2.9-11.4c0-5.2,1.1-9.3,3.2-12.1c2.1-2.8,5.1-4.2,9-4.2c3.6,0,6.3,1.3,8.2,4c1.9,2.6,2.8,6.5,2.8,11.4
		C189.5,35.8,188.5,39.8,186.4,42.6z"/>
	<path class="st0" d="M217.3,30.3c-1.7-0.8-3.4-1.6-5-2.2c-1.3-0.5-2.6-1.1-3.8-1.7c-1.2-0.6-2.2-1.3-2.9-2.2
		c-0.7-0.9-1.1-2-1.1-3.4c0-1.8,0.6-3.2,1.8-4.2c1.2-1,2.9-1.5,5-1.5c2.1,0,3.8,0.5,5.1,1.6c1.2,1.1,1.9,2.7,1.9,4.8
		c0.4,0.3,1,0.5,1.6,0.5s1.1-0.2,1.5-0.6c0.4-0.4,0.6-1,0.6-1.8c0-1.1-0.5-2.2-1.4-3.1c-0.9-0.9-2.2-1.7-3.7-2.2
		c-1.6-0.5-3.3-0.8-5.1-0.8c-3.3,0-5.9,0.8-7.9,2.5c-2,1.6-3,3.7-3,6.2c0,1.7,0.5,3.1,1.4,4.3c0.9,1.2,2.1,2.2,3.5,3
		c1.4,0.8,2.9,1.5,4.4,2.1c1.5,0.6,3,1.2,4.4,1.9c1.4,0.6,2.5,1.5,3.4,2.6c0.9,1.1,1.3,2.5,1.3,4.3c0,2.2-0.7,4-2.1,5.2
		c-1.4,1.2-3.4,1.9-5.8,1.9c-2.5,0-4.5-0.7-5.8-2.1c-1.3-1.4-2-3.4-2-6.1c-0.4-0.7-1.1-1-2-1c-0.6,0-1.1,0.2-1.6,0.7
		c-0.4,0.4-0.7,1.2-0.7,2.2c0,2.1,1.1,4,3.2,5.6c2.1,1.6,4.9,2.4,8.2,2.4c2.3,0,4.4-0.4,6.3-1.3c1.9-0.8,3.3-2,4.4-3.6
		c1.1-1.5,1.6-3.3,1.6-5.3c0-2.1-0.5-3.8-1.6-5.1C220.3,32.3,218.9,31.2,217.3,30.3z"/>
	<path class="st0" d="M281.2,38.4c-0.4-0.2-0.9-0.3-1.5-0.3l-1.2,7.9L258,44.7V2.9l4.1-1c0.4-0.1,0.7-0.3,0.9-0.6
		c0.2-0.3,0.3-0.7,0.3-1.3h-12.9c-0.5,0.1-0.8,0.3-1,0.6c-0.2,0.3-0.3,0.7-0.3,1.3l5,1V45l-3.8,0.9c-0.4,0.1-0.7,0.2-0.9,0.6
		c-0.2,0.3-0.3,0.8-0.3,1.4h32.8v-8.7C281.8,38.9,281.5,38.6,281.2,38.4z"/>
	<path class="st0" d="M312.6,15.4c-2.1-1.3-4.6-2-7.5-2c-3.3,0-6.2,0.9-8.9,2.6s-4.7,4-6.2,7c-1.5,2.9-2.3,6.3-2.3,10
		c0,4.8,1.3,8.6,3.8,11.5c2.5,2.9,6,4.3,10.3,4.3c3.4,0,6.4-0.8,9-2.5s4.7-4,6.1-6.9c1.5-2.9,2.2-6.3,2.2-10.2c0-3.2-0.6-6-1.8-8.3
		C316.3,18.5,314.7,16.7,312.6,15.4z M312,42.6c-2.1,2.9-5,4.3-8.9,4.3c-3.6,0-6.4-1.3-8.4-4c-1.9-2.6-2.9-6.5-2.9-11.4
		c0-5.2,1.1-9.3,3.2-12.1c2.1-2.8,5.1-4.2,9-4.2c3.6,0,6.3,1.3,8.2,4c1.9,2.6,2.8,6.5,2.8,11.4C315.1,35.8,314.1,39.8,312,42.6z"/>
	<path class="st0" d="M353.7,15.3c-1.8-1.3-3.9-1.9-6.4-1.9c-2.4,0-4.7,0.7-7,2c-2.3,1.3-4.2,3.2-5.9,5.6h-0.3v-3.8
		c0-1-0.2-1.7-0.7-2.2c-0.4-0.5-1.2-0.7-2.2-0.7c-0.4,0-1,0.1-1.8,0.1c-0.7,0.1-1.9,0.3-3.5,0.5c0,1.2,0.3,1.8,1,1.9l3.6,0.5v47.3
		l-3.4,1c-0.8,0.2-1.2,0.9-1.2,1.9h11.9c0.5-0.1,0.9-0.3,1.1-0.6c0.2-0.3,0.3-0.7,0.3-1.3l-4.8-1.1V47.4c1,0.4,2,0.7,3.1,0.9
		c1.5,0.3,3,0.4,4.5,0.4c3.5,0,6.6-0.8,9.2-2.4c2.6-1.6,4.6-3.9,6-6.8c1.4-2.9,2.1-6.4,2.1-10.4c0-3.2-0.5-6-1.5-8.4
		C356.9,18.4,355.5,16.6,353.7,15.3z M352.2,42.9c-2,2.6-5.2,3.8-9.7,3.8c-1.4,0-2.8-0.2-4-0.6c-1.1-0.3-2.5-0.9-4.3-1.7V23.1
		c1-1.4,2-2.6,3.1-3.5c1.2-1.2,2.6-2,4-2.6c1.4-0.6,3-0.9,4.6-0.9c3.2,0,5.5,1.1,7,3.4c1.5,2.3,2.2,5.9,2.2,10.9
		C355.3,36.1,354.2,40.3,352.2,42.9z"/>
	<path class="st0" d="M391.4,28.8c0.2,0,0.5-0.1,0.8-0.4c0.3-0.3,0.5-0.8,0.5-1.6c0-2.6-0.5-5-1.5-7c-1-2-2.4-3.6-4.2-4.7
		c-1.8-1.1-3.9-1.7-6.2-1.7c-2.8,0-5.4,0.9-7.8,2.6c-2.4,1.7-4.4,4-5.8,7c-1.5,2.9-2.2,6.2-2.2,9.9c0,3.1,0.6,5.9,1.7,8.3
		c1.1,2.4,2.8,4.3,4.9,5.6c2.1,1.3,4.6,2,7.5,2c1.7,0,3.4-0.3,5.1-0.9c1.6-0.6,3.2-1.5,4.6-2.6c1.4-1.1,2.7-2.5,3.7-4.1l-0.8-1.3
		c-1.3,2-3,3.7-5,4.9c-2,1.2-4,1.8-6.1,1.8c-2.4,0-4.4-0.7-6.2-2c-1.7-1.3-3-3.1-3.9-5.4c-0.9-2.3-1.3-4.9-1.3-7.9
		c0-0.8,0-1.6,0.1-2.4H391.4z M372.1,19.4c2-2.8,4.6-4.2,7.8-4.2c1.8,0,3.5,0.5,4.9,1.5c1.4,1,2.5,2.4,3.3,4.3c0.7,1.7,1,3.6,1,5.7
		l-19.7,0.5C369.7,24,370.7,21.4,372.1,19.4z"/>
	<path class="st0" d="M424.7,37.6c-0.3-0.2-0.6-0.4-0.9-0.5c-0.3-0.1-0.7-0.2-1-0.2l-0.8,8.8l-18.3-0.7l20-26.9
		c0.2-0.3,0.3-0.6,0.4-0.9c0.1-0.3,0.1-0.5,0.1-0.8c0-0.5-0.2-0.9-0.5-1.2c-0.3-0.3-0.9-0.5-1.6-0.5h-22.3l0.9,10.2
		c0.2,0,0.4,0,0.7-0.1c0.3,0,0.5-0.1,0.8-0.3c0.2-0.1,0.4-0.3,0.4-0.6l0.8-7.1l16.2,0.6l-20.2,27.2c-0.2,0.2-0.3,0.5-0.4,0.8
		c-0.1,0.3-0.2,0.5-0.2,0.8c0,0.4,0.2,0.8,0.4,1.1c0.3,0.3,0.7,0.4,1.2,0.4h24.7L424.7,37.6z"/>
</g>
</svg>
