<?xml version="1.0" encoding="utf-8"?>
<!-- Generator: Adobe Illustrator 23.0.5, SVG Export Plug-In . SVG Version: 6.00 Build 0)  -->
<svg version="1.1" id="Capa_1" xmlns="http://www.w3.org/2000/svg" xmlns:xlink="http://www.w3.org/1999/xlink" x="0px" y="0px"
	 viewBox="0 0 1920 1080" style="enable-background:new 0 0 1920 1080;" xml:space="preserve">
<style type="text/css">
	.st0{fill:#012340;}
</style>
<g>
	<g>
		<path class="st0" d="M99.5,369.3c1.4-2.1,2-5.5,2-10.2l-41.2-7.3L89.6,32.3l129.3,342.5c0.8,0.4,1.7,0.7,2.6,0.9
			c1,0.2,1.7,0.3,2,0.3c1.6,0,3.2-0.8,5-2.3c1.8-1.5,3.4-4.3,5-8.2L359.6,29.9L385.4,351l-36.3,8.1c-3.1,0.4-5.5,1.9-7,4.4
			c-1.6,2.5-2.3,6.1-2.3,10.8h108.6c4.3-1.2,7-2.8,8.2-5c1.2-2.1,1.8-5.5,1.8-10.2l-43-7.9L388.8,21.7l30.9-6.5
			c3.1-0.8,5.4-2.3,7-4.7c1.6-2.3,2.3-5.8,2.3-10.5h-77.1L231.2,321.5L110.3,0H42.6c-3.9,1.2-6.5,2.7-7.9,4.7c-1.4,2-2,5.3-2,9.9
			l40.1,7.9L41.8,352.9l-32.5,6.2c-3.1,0.4-5.5,1.9-7,4.4C0.8,366,0,369.6,0,374.2h91.1C95.4,373.1,98.2,371.4,99.5,369.3z"/>
		<path class="st0" d="M669.1,337.5h1.8c0,14,2.8,24.8,8.5,32.4c5.6,7.6,13.7,11.4,24.2,11.4c7.4,0,15.1-2,23.1-5.8
			c8-3.9,14.7-9.1,20.1-15.8l-2.9-11.1c-4.3,3.5-9.3,6.4-14.9,8.8c-5.6,2.3-10.8,3.5-15.5,3.5s-8.4-1.8-11.1-5.3
			c-2.7-3.5-4.1-8.6-4.1-15.2v-146c0-31.9-5.6-54.9-16.9-68.9c-11.3-14-29.8-21-55.5-21c-18.3,0-34.5,2.7-48.8,8.2
			c-14.2,5.5-25.4,12.8-33.6,22.2c-8.2,9.3-12.3,20.1-12.3,32.1c0,5.8,1.3,10.3,3.8,13.4c2.5,3.1,6.1,4.7,10.8,4.7
			c2.3,0,4.8-0.4,7.3-1.2c2.5-0.8,4.6-1.9,6.1-3.5c-0.4-19.9,5-35.4,16.1-46.7c11.1-11.3,26.2-16.9,45.2-16.9
			c16.3,0,28.4,5.1,36.2,15.2c7.8,10.1,11.7,25.7,11.7,46.7v43.8l-67.7,15.7c-28.4,6.6-49.5,16.8-63.3,30.7
			c-13.8,13.8-20.7,31.8-20.7,54c0,17.9,6,32.1,18.1,42.6c12.1,10.5,27.2,15.8,45.5,15.8c18.3,0,35-3.8,50.2-11.4
			C645.7,362.3,658.6,351.5,669.1,337.5z M559,350.3c-8.4-8.9-12.6-21.2-12.6-36.8c0-16.3,4.9-29.8,14.6-40.3
			c9.7-10.5,24.3-18.1,43.8-22.8l64.2-15.4v88.6c-8.7,12.4-19.3,22-31.8,28.9c-13.4,7.4-28.1,11.1-44.1,11.1
			C578.8,363.7,567.4,359.3,559,350.3z"/>
		<path class="st0" d="M857.1,180c9.8-13.2,20.4-24.7,31.8-34.6c13-11.3,25.4-16.9,37.1-16.9c7,0,13.4,1.8,19.3,5.3
			c5.8,3.5,11.7,10.7,17.5,21.6c5.1,0,9.1-2.1,12.3-6.4c3.1-4.3,4.7-9.3,4.7-15.2c0-7.4-2.7-14.1-8.2-20.1c-5.5-6-14.8-9-28-9
			c-14,0-29.1,5.7-45.2,17.2c-16.2,11.5-30.1,26.4-41.7,44.7h-1.2v-25.7c0-10.1-2-17.6-6.1-22.5c-4.1-4.9-9.6-7.3-16.6-7.3
			c-3.5,0-8.1,0.4-13.7,1.2c-5.6,0.8-14.9,2.1-27.7,4.1c0,4.7,0.8,8.2,2.3,10.5c1.6,2.3,3.7,3.9,6.4,4.7l27.4,3.7v216.4l-26.9,7.5
			c-6.2,2-9.3,7-9.3,15.2h96.3c4.3-1.2,7.1-2.8,8.5-5c1.4-2.1,2-5.5,2-10.2l-40.9-8.4V180z"/>
		<path class="st0" d="M1212.6,331.6l-6.4-9.3c-10.9,12.8-24,23-39.4,30.4c-15.4,7.4-31,11.1-47,11.1c-29.6,0-52.2-10.5-67.7-31.5
			c-15.6-21-23.4-51.2-23.4-90.5c0-39.3,7.6-69.6,22.8-90.8c15.2-21.2,36.8-31.8,64.8-31.8c20.2,0,35.6,5.5,46.1,16.3
			c10.5,10.9,15.8,26.3,15.8,46.1c2.3,1.2,4.6,2,6.7,2.6c2.1,0.6,4.6,0.9,7.3,0.9c5.4,0,9.8-1.8,13.1-5.5c3.3-3.7,5-8.8,5-15.5
			c0-11.3-3.8-21.4-11.4-30.4c-7.6-9-18-16.1-31.2-21.3c-13.2-5.3-27.8-7.9-43.8-7.9c-24.5,0-46.4,6.4-65.7,19.3
			c-19.3,12.8-34.4,30.5-45.2,52.8c-10.9,22.4-16.3,48.4-16.3,77.9c0,26.1,4.6,48.6,13.7,67.4c9.1,18.9,22.2,33.5,39.1,43.8
			c16.9,10.3,36.9,15.5,59.8,15.5c13.2,0,26.3-2,39.1-6.1c12.8-4.1,24.8-9.8,35.9-17.2C1195.4,350.5,1204.8,341.7,1212.6,331.6z"/>
		<path class="st0" d="M1449.1,120c-16.3-10.3-35.8-15.5-58.4-15.5c-25.7,0-48.7,6.7-69.2,20.1c-20.4,13.4-36.6,31.6-48.5,54.6
			c-11.9,23-17.8,49-17.8,78.2c0,37.4,9.9,67.3,29.8,89.9c19.9,22.6,46.7,33.9,80.6,33.9c26.5,0,49.9-6.5,70.4-19.6
			c20.4-13,36.4-31,47.9-54c11.5-23,17.2-49.4,17.2-79.4c0-24.9-4.6-46.6-13.7-65.1C1478.2,144.7,1465.4,130.3,1449.1,120z
			 M1444.7,333.1c-16.2,22.4-39.2,33.6-69.2,33.6c-28.4,0-50.2-10.3-65.4-30.9c-15.2-20.6-22.8-50.4-22.8-89.3
			c0-40.9,8.4-72.3,25.1-94.3c16.7-22,40.1-33,70.1-33c28,0,49.4,10.3,64.2,30.9c14.8,20.6,22.2,50.4,22.2,89.3
			C1468.9,279.5,1460.8,310.7,1444.7,333.1z"/>
		<path class="st0" d="M1715,262.1c-8.4-10.1-19.1-18.5-32.1-25.1c-13-6.6-26.2-12.5-39.4-17.5c-10.5-4.3-20.5-8.8-30.1-13.4
			c-9.5-4.7-17.1-10.5-22.8-17.5c-5.6-7-8.5-16-8.5-26.9c0-14,4.7-25,14-33c9.3-8,22.4-12,39.1-12c16.7,0,30,4.3,39.7,12.8
			c9.7,8.6,14.6,21,14.6,37.4c3.5,2.7,7.6,4.1,12.3,4.1s8.7-1.5,12-4.7c3.3-3.1,5-7.8,5-14c0-8.9-3.6-17.1-10.8-24.5
			c-7.2-7.4-16.9-13.1-29.2-17.2c-12.3-4.1-25.6-6.1-40-6.1c-25.7,0-46.3,6.4-61.9,19.3c-15.6,12.8-23.4,29-23.4,48.5
			c0,13.2,3.7,24.5,11.1,33.9c7.4,9.3,16.6,17,27.7,23.1c11.1,6,22.7,11.4,34.7,16.1c12.1,4.7,23.4,9.5,34.2,14.6
			c10.7,5.1,19.5,11.8,26.3,20.1c6.8,8.4,10.2,19.6,10.2,33.6c0,17.5-5.5,31.1-16.6,40.9c-11.1,9.7-26.2,14.6-45.2,14.6
			c-19.8,0-34.9-5.4-45.2-16.3c-10.3-10.9-15.5-26.9-15.5-47.9c-3.5-5.4-8.8-8.2-15.8-8.2c-4.7,0-8.8,1.8-12.3,5.3
			c-3.5,3.5-5.3,9.3-5.3,17.5c0,16.7,8.4,31.2,25.1,43.5c16.7,12.3,38.1,18.4,64.2,18.4c18.3,0,34.7-3.3,49.3-9.9
			c14.6-6.6,26.1-16,34.4-28c8.4-12.1,12.6-25.9,12.6-41.5C1727.5,285.5,1723.4,272.3,1715,262.1z"/>
	</g>
	<g>
		<path class="st0" d="M261.3,850c-2.9-1.6-6.7-2.3-11.4-2.3l-9,61.5l-160.3-9.7V572.8l32.1-7.7c3.1-0.8,5.4-2.3,7-4.7
			c1.5-2.3,2.3-5.8,2.3-10.5H21c-3.9,1.2-6.5,2.7-7.9,4.7c-1.4,2-2,5.3-2,9.9l39.1,8.1v329L20.4,909c-3.1,0.4-5.5,1.9-7,4.4
			c-1.6,2.5-2.3,6.1-2.3,10.8h256.3v-68.3C266.2,853.5,264.2,851.6,261.3,850z"/>
		<path class="st0" d="M503.8,669.9c-16.3-10.3-35.8-15.5-58.4-15.5c-25.7,0-48.7,6.7-69.2,20.1c-20.4,13.4-36.6,31.6-48.5,54.6
			c-11.9,23-17.8,49-17.8,78.2c0,37.4,9.9,67.3,29.8,89.9c19.9,22.6,46.7,33.9,80.6,33.9c26.5,0,49.9-6.5,70.4-19.6
			c20.4-13,36.4-31,47.9-54c11.5-23,17.2-49.4,17.2-79.4c0-24.9-4.6-46.6-13.7-65.1C532.9,694.6,520.2,680.2,503.8,669.9z
			 M499.5,883c-16.2,22.4-39.2,33.6-69.2,33.6c-28.4,0-50.2-10.3-65.4-30.9c-15.2-20.6-22.8-50.4-22.8-89.3
			c0-40.9,8.4-72.3,25.1-94.3c16.7-22,40.1-33,70.1-33c28,0,49.4,10.3,64.2,30.9c14.8,20.6,22.2,50.4,22.2,89.3
			C523.7,829.4,515.6,860.6,499.5,883z"/>
		<path class="st0" d="M822.3,669.3c-13.8-9.9-30.5-14.9-49.9-14.9c-18.7,0-36.9,5.2-54.6,15.5c-17.7,10.3-33.2,24.8-46.4,43.5h-2.3
			v-29.8c0-7.8-1.8-13.5-5.3-17.2c-3.5-3.7-9.2-5.5-16.9-5.5c-3.5,0-8.2,0.4-14,1.2c-5.8,0.8-15,2.1-27.4,4.1
			c0,9.3,2.7,14.4,8.2,15.2l28,3.7v369.4l-26.9,7.5c-6.2,1.9-9.3,7-9.3,15.2h92.8c4.3-0.8,7.1-2.3,8.5-4.7c1.4-2.3,2-5.6,2-9.9
			l-37.4-8.4V920.6c7.8,3,15.9,5.3,24.5,7.1c11.7,2.3,23.4,3.5,35,3.5c27.6,0,51.6-6.3,71.8-19c20.2-12.6,35.9-30.4,47-53.4
			c11.1-23,16.6-50,16.6-81.2c0-25.3-3.9-47.2-11.7-65.7C846.9,693.5,836.1,679.3,822.3,669.3z M810.6,884.8
			c-15.8,20.1-41,30.1-75.6,30.1c-11.3,0-21.6-1.5-30.9-4.4c-8.4-2.6-19.5-7.1-33.3-13.3V730.2c7.8-10.7,15.8-19.9,23.9-27.6
			c9.7-9.1,20.1-16,31.2-20.4c11.1-4.5,23.1-6.7,35.9-6.7c24.9,0,43.2,9,54.9,26.9c11.7,17.9,17.5,46.3,17.5,85.2
			C834.3,832.3,826.4,864.7,810.6,884.8z"/>
		<path class="st0" d="M1113.9,775.3c1.5,0,3.7-1.1,6.4-3.2c2.7-2.1,4.1-6.3,4.1-12.6c0-20.6-4-38.8-12-54.6
			c-8-15.8-19-28.1-33-37.1c-14-8.9-30.2-13.4-48.5-13.4c-21.8,0-42.1,6.7-61,20.1c-18.9,13.4-34.1,31.5-45.5,54.3
			c-11.5,22.8-17.2,48.6-17.2,77.4c0,24.5,4.5,46.2,13.4,65.1c9,18.9,21.7,33.6,38.2,44.1c16.5,10.5,36.1,15.8,58.7,15.8
			c13.6,0,26.9-2.4,39.7-7.3c12.8-4.9,24.9-11.7,36.2-20.4c11.3-8.8,20.8-19.4,28.6-31.8l-6.4-9.9c-10.5,16-23.6,28.6-39.1,38
			c-15.6,9.3-31.5,14-47.9,14c-18.7,0-34.7-5.2-48.2-15.5c-13.4-10.3-23.6-24.4-30.7-42.3c-7-17.9-10.5-38.5-10.5-61.9
			c0-6.5,0.2-12.7,0.7-18.7H1113.9z M963,701.7c15.8-21.8,36.1-32.7,61-32.7c14.4,0,27,4,37.9,12c10.9,8,19.4,19.1,25.4,33.3
			c5.5,13,8.2,28,8,44.8l-154.1,3.6C944.4,737.8,951.7,717.4,963,701.7z"/>
		<path class="st0" d="M1363.5,839.8c-2.5-1-5.2-1.5-7.9-1.5l-6.2,69l-142.8-5.3l156.6-210.3c1.6-2.3,2.7-4.6,3.5-6.7
			c0.8-2.1,1.2-4.2,1.2-6.1c0-3.9-1.4-7.1-4.1-9.6c-2.7-2.5-7-3.8-12.8-3.8h-174.6l7,80c1.5,0,3.4-0.2,5.5-0.6
			c2.1-0.4,4.2-1.1,6.1-2c1.9-1,2.9-2.6,2.9-5l6.2-55.8l126.8,5l-157.5,212.5c-1.6,2-2.7,4-3.5,6.1c-0.8,2.1-1.2,4.2-1.2,6.1
			c0,3.5,1.2,6.4,3.5,8.8c2.3,2.3,5.4,3.5,9.3,3.5h193.2l-4.1-80.6C1368.5,842.1,1366.1,840.8,1363.5,839.8z"/>
	</g>
</g>
</svg>
